<svg width="1600" height="1000" viewBox="0 0 1600 1000" fill="none" xmlns="http://www.w3.org/2000/svg">
  <rect width="1600" height="1000" rx="36" fill="#111218"/>
  <rect x="40" y="40" width="1520" height="920" rx="28" fill="url(#bg2)" stroke="rgba(255,255,255,0.08)"/>
  <rect x="100" y="110" width="300" height="780" rx="26" fill="rgba(255,255,255,0.035)"/>
  <rect x="446" y="110" width="1014" height="340" rx="26" fill="url(#hero2)"/>
  <rect x="446" y="490" width="492" height="400" rx="26" fill="rgba(255,255,255,0.035)"/>
  <rect x="968" y="490" width="492" height="400" rx="26" fill="rgba(255,255,255,0.035)"/>
  <text x="168" y="220" fill="rgba(255,255,255,0.34)" font-family="Arial, sans-serif" font-size="20" letter-spacing="10">CATALOG</text>
  <rect x="168" y="270" width="164" height="12" rx="6" fill="rgba(255,255,255,0.18)"/>
  <rect x="168" y="318" width="132" height="12" rx="6" fill="rgba(255,255,255,0.1)"/>
  <rect x="168" y="366" width="180" height="12" rx="6" fill="rgba(255,255,255,0.12)"/>
  <text x="520" y="266" fill="#F4F1E8" font-family="Arial, sans-serif" font-size="110" font-weight="700" letter-spacing="-5">ATLAS</text>
  <text x="522" y="332" fill="rgba(255,255,255,0.44)" font-family="Arial, sans-serif" font-size="28" letter-spacing="10">OUTDOOR GEAR</text>
  <rect x="522" y="382" width="234" height="58" rx="29" fill="#E7E2D7"/>
  <rect x="1122" y="182" width="252" height="206" rx="22" fill="rgba(0,0,0,0.22)"/>
  <rect x="488" y="548" width="404" height="18" rx="9" fill="rgba(255,255,255,0.14)"/>
  <rect x="488" y="594" width="316" height="18" rx="9" fill="rgba(255,255,255,0.1)"/>
  <rect x="488" y="670" width="360" height="170" rx="22" fill="url(#card2)"/>
  <rect x="1010" y="548" width="404" height="18" rx="9" fill="rgba(255,255,255,0.14)"/>
  <rect x="1010" y="594" width="282" height="18" rx="9" fill="rgba(255,255,255,0.1)"/>
  <rect x="1010" y="646" width="182" height="182" rx="22" fill="rgba(255,255,255,0.06)"/>
  <defs>
    <linearGradient id="bg2" x1="800" y1="40" x2="800" y2="960" gradientUnits="userSpaceOnUse">
      <stop stop-color="#1B1D25"/>
      <stop offset="1" stop-color="#12141A"/>
    </linearGradient>
    <linearGradient id="hero2" x1="446" y1="110" x2="1460" y2="450" gradientUnits="userSpaceOnUse">
      <stop stop-color="#252A34"/>
      <stop offset="1" stop-color="#191C24"/>
    </linearGradient>
    <linearGradient id="card2" x1="488" y1="670" x2="848" y2="840" gradientUnits="userSpaceOnUse">
      <stop stop-color="#49586A"/>
      <stop offset="1" stop-color="#1C2733"/>
    </linearGradient>
  </defs>
</svg>
