<svg width="1600" height="1000" viewBox="0 0 1600 1000" fill="none" xmlns="http://www.w3.org/2000/svg">
  <rect width="1600" height="1000" rx="36" fill="#111218"/>
  <rect x="40" y="40" width="1520" height="920" rx="28" fill="url(#bg3)" stroke="rgba(255,255,255,0.08)"/>
  <rect x="110" y="122" width="1380" height="84" rx="22" fill="rgba(255,255,255,0.035)"/>
  <rect x="110" y="246" width="420" height="604" rx="28" fill="rgba(255,255,255,0.035)"/>
  <rect x="566" y="246" width="924" height="286" rx="28" fill="url(#hero3)"/>
  <rect x="566" y="564" width="280" height="286" rx="24" fill="rgba(255,255,255,0.035)"/>
  <rect x="888" y="564" width="280" height="286" rx="24" fill="rgba(255,255,255,0.035)"/>
  <rect x="1210" y="564" width="280" height="286" rx="24" fill="rgba(255,255,255,0.035)"/>
  <text x="160" y="174" fill="rgba(255,255,255,0.38)" font-family="Arial, sans-serif" font-size="22" letter-spacing="12">HOMEWARE</text>
  <text x="612" y="374" fill="#F4F0E8" font-family="Arial, sans-serif" font-size="98" font-weight="700" letter-spacing="-4">AURIC</text>
  <text x="614" y="434" fill="rgba(255,255,255,0.44)" font-family="Arial, sans-serif" font-size="24" letter-spacing="8">ESSENTIAL INTERIORS</text>
  <rect x="614" y="472" width="210" height="14" rx="7" fill="rgba(255,255,255,0.22)"/>
  <rect x="152" y="294" width="336" height="12" rx="6" fill="rgba(255,255,255,0.18)"/>
  <rect x="152" y="342" width="260" height="12" rx="6" fill="rgba(255,255,255,0.1)"/>
  <rect x="152" y="420" width="336" height="190" rx="22" fill="url(#card3)"/>
  <rect x="152" y="646" width="220" height="52" rx="26" fill="#E5DFD3"/>
  <rect x="608" y="612" width="196" height="16" rx="8" fill="rgba(255,255,255,0.14)"/>
  <rect x="608" y="658" width="144" height="16" rx="8" fill="rgba(255,255,255,0.1)"/>
  <rect x="930" y="612" width="196" height="16" rx="8" fill="rgba(255,255,255,0.14)"/>
  <rect x="930" y="658" width="144" height="16" rx="8" fill="rgba(255,255,255,0.1)"/>
  <rect x="1252" y="612" width="196" height="16" rx="8" fill="rgba(255,255,255,0.14)"/>
  <rect x="1252" y="658" width="144" height="16" rx="8" fill="rgba(255,255,255,0.1)"/>
  <defs>
    <linearGradient id="bg3" x1="800" y1="40" x2="800" y2="960" gradientUnits="userSpaceOnUse">
      <stop stop-color="#1A1C23"/>
      <stop offset="1" stop-color="#12141A"/>
    </linearGradient>
    <linearGradient id="hero3" x1="566" y1="246" x2="1490" y2="532" gradientUnits="userSpaceOnUse">
      <stop stop-color="#262A34"/>
      <stop offset="1" stop-color="#1A1D25"/>
    </linearGradient>
    <linearGradient id="card3" x1="152" y1="420" x2="488" y2="610" gradientUnits="userSpaceOnUse">
      <stop stop-color="#D6CFBF"/>
      <stop offset="1" stop-color="#8D8371"/>
    </linearGradient>
  </defs>
</svg>
