<svg width="1600" height="1000" viewBox="0 0 1600 1000" fill="none" xmlns="http://www.w3.org/2000/svg">
  <rect width="1600" height="1000" rx="36" fill="#121318"/>
  <rect x="40" y="40" width="1520" height="920" rx="28" fill="url(#bg1)" stroke="rgba(255,255,255,0.08)"/>
  <rect x="112" y="118" width="1376" height="72" rx="18" fill="rgba(255,255,255,0.03)"/>
  <circle cx="164" cy="154" r="8" fill="#E9E4D9"/>
  <circle cx="196" cy="154" r="8" fill="rgba(255,255,255,0.18)"/>
  <circle cx="228" cy="154" r="8" fill="rgba(255,255,255,0.1)"/>
  <text x="1240" y="160" fill="rgba(255,255,255,0.38)" font-family="Arial, sans-serif" font-size="22" letter-spacing="10">SHOPIFY BEAUTY</text>
  <rect x="112" y="234" width="634" height="530" rx="28" fill="url(#hero1)"/>
  <rect x="806" y="234" width="290" height="250" rx="24" fill="rgba(255,255,255,0.04)"/>
  <rect x="1142" y="234" width="290" height="250" rx="24" fill="rgba(255,255,255,0.04)"/>
  <rect x="806" y="514" width="626" height="250" rx="24" fill="rgba(255,255,255,0.04)"/>
  <rect x="112" y="810" width="1320" height="70" rx="18" fill="rgba(255,255,255,0.03)"/>
  <text x="164" y="410" fill="#F5F1E8" font-family="Arial, sans-serif" font-size="108" font-weight="700" letter-spacing="-4">LUNE</text>
  <text x="166" y="474" fill="rgba(255,255,255,0.44)" font-family="Arial, sans-serif" font-size="26" letter-spacing="8">SKINCARE ESSENTIALS</text>
  <rect x="166" y="548" width="216" height="18" rx="9" fill="rgba(255,255,255,0.24)"/>
  <rect x="166" y="588" width="292" height="18" rx="9" fill="rgba(255,255,255,0.16)"/>
  <rect x="166" y="666" width="228" height="62" rx="31" fill="#E9E4D9"/>
  <text x="840" y="310" fill="rgba(255,255,255,0.38)" font-family="Arial, sans-serif" font-size="20" letter-spacing="8">FEATURED</text>
  <rect x="842" y="352" width="218" height="12" rx="6" fill="rgba(255,255,255,0.2)"/>
  <rect x="842" y="390" width="198" height="12" rx="6" fill="rgba(255,255,255,0.12)"/>
  <rect x="1178" y="278" width="216" height="160" rx="18" fill="url(#card1)"/>
  <rect x="842" y="560" width="552" height="16" rx="8" fill="rgba(255,255,255,0.16)"/>
  <rect x="842" y="606" width="430" height="16" rx="8" fill="rgba(255,255,255,0.1)"/>
  <rect x="842" y="688" width="182" height="46" rx="23" fill="rgba(255,255,255,0.08)"/>
  <defs>
    <linearGradient id="bg1" x1="800" y1="40" x2="800" y2="960" gradientUnits="userSpaceOnUse">
      <stop stop-color="#1A1C23"/>
      <stop offset="1" stop-color="#14151B"/>
    </linearGradient>
    <linearGradient id="hero1" x1="112" y1="234" x2="746" y2="764" gradientUnits="userSpaceOnUse">
      <stop stop-color="#252832"/>
      <stop offset="1" stop-color="#171920"/>
    </linearGradient>
    <linearGradient id="card1" x1="1178" y1="278" x2="1394" y2="438" gradientUnits="userSpaceOnUse">
      <stop stop-color="#ECE7DB"/>
      <stop offset="1" stop-color="#97907F"/>
    </linearGradient>
  </defs>
</svg>
