<svg width="1600" height="1000" viewBox="0 0 1600 1000" fill="none" xmlns="http://www.w3.org/2000/svg">
  <rect width="1600" height="1000" rx="36" fill="#111218"/>
  <rect x="40" y="40" width="1520" height="920" rx="28" fill="url(#bg4)" stroke="rgba(255,255,255,0.08)"/>
  <rect x="118" y="118" width="748" height="766" rx="28" fill="url(#hero4)"/>
  <rect x="912" y="118" width="570" height="316" rx="28" fill="rgba(255,255,255,0.035)"/>
  <rect x="912" y="470" width="570" height="414" rx="28" fill="rgba(255,255,255,0.035)"/>
  <text x="178" y="286" fill="#F4F0E8" font-family="Arial, sans-serif" font-size="96" font-weight="700" letter-spacing="-4">SORA</text>
  <text x="178" y="346" fill="rgba(255,255,255,0.44)" font-family="Arial, sans-serif" font-size="24" letter-spacing="8">SUBSCRIPTION FLOW</text>
  <rect x="178" y="398" width="236" height="14" rx="7" fill="rgba(255,255,255,0.22)"/>
  <rect x="178" y="446" width="294" height="14" rx="7" fill="rgba(255,255,255,0.12)"/>
  <rect x="178" y="534" width="628" height="198" rx="26" fill="rgba(255,255,255,0.05)"/>
  <rect x="178" y="766" width="220" height="58" rx="29" fill="#E9E3D8"/>
  <text x="964" y="188" fill="rgba(255,255,255,0.38)" font-family="Arial, sans-serif" font-size="20" letter-spacing="10">CHECKOUT</text>
  <rect x="964" y="236" width="438" height="16" rx="8" fill="rgba(255,255,255,0.15)"/>
  <rect x="964" y="282" width="338" height="16" rx="8" fill="rgba(255,255,255,0.1)"/>
  <rect x="964" y="338" width="188" height="50" rx="25" fill="rgba(255,255,255,0.08)"/>
  <rect x="964" y="528" width="466" height="132" rx="22" fill="url(#card4)"/>
  <rect x="964" y="710" width="466" height="16" rx="8" fill="rgba(255,255,255,0.14)"/>
  <rect x="964" y="756" width="324" height="16" rx="8" fill="rgba(255,255,255,0.1)"/>
  <defs>
    <linearGradient id="bg4" x1="800" y1="40" x2="800" y2="960" gradientUnits="userSpaceOnUse">
      <stop stop-color="#1A1C23"/>
      <stop offset="1" stop-color="#12141A"/>
    </linearGradient>
    <linearGradient id="hero4" x1="118" y1="118" x2="866" y2="884" gradientUnits="userSpaceOnUse">
      <stop stop-color="#252A34"/>
      <stop offset="1" stop-color="#171A22"/>
    </linearGradient>
    <linearGradient id="card4" x1="964" y1="528" x2="1430" y2="660" gradientUnits="userSpaceOnUse">
      <stop stop-color="#606E83"/>
      <stop offset="1" stop-color="#2D3947"/>
    </linearGradient>
  </defs>
</svg>
